<svg xmlns="http://www.w3.org/2000/svg" class="sigil" viewBox="0 0 96 96" width="96" height="96" aria-hidden="true" focusable="false" fill="none" stroke="#1c2420" stroke-width="1.4" stroke-linecap="round" stroke-linejoin="round">
    <circle cx="48" cy="48" r="46.5"/><circle cx="48" cy="48" r="38.5"/>
    <path d="M88 49.3L92.5 49.4"/><path d="M82.8 67.7L86.7 69.9"/><path d="M69.7 81.6L72.1 85.4"/><path d="M51.6 87.8L52 92.3"/><path d="M32.6 84.9L30.9 89.1"/><path d="M17.2 73.6L13.8 76.4"/><path d="M8.9 56.3L4.5 57.3"/><path d="M9.5 37.2L5.1 36"/><path d="M18.9 20.5L15.6 17.5"/><path d="M35 10.2L33.5 5.9"/><path d="M54.1 8.5L54.7 4"/><path d="M71.7 15.8L74.4 12.2"/><path d="M84 30.5L88 28.6"/><path d="M81.7 54.8L82.5 56.6L84.3 57.4L82.5 58.2L81.7 60L80.9 58.2L79.1 57.4L80.9 56.6Z" fill="#1c2420" stroke="none"/><path d="M38.6 79.1L39.4 80.9L41.2 81.7L39.4 82.5L38.6 84.3L37.8 82.5L36 81.7L37.8 80.9Z" fill="#1c2420" stroke="none"/><path d="M14.3 36L15.1 37.8L16.9 38.6L15.1 39.4L14.3 41.2L13.5 39.4L11.7 38.6L13.5 37.8Z" fill="#1c2420" stroke="none"/><path d="M57.4 11.7L58.2 13.5L60 14.3L58.2 15.1L57.4 16.9L56.6 15.1L54.8 14.3L56.6 13.5Z" fill="#1c2420" stroke="none"/><circle cx="79" cy="48" r=".7" fill="#1c2420" stroke="none"/><circle cx="78.4" cy="54" r=".7" fill="#1c2420" stroke="none"/><circle cx="76.6" cy="59.9" r=".7" fill="#1c2420" stroke="none"/><circle cx="73.8" cy="65.2" r=".7" fill="#1c2420" stroke="none"/><circle cx="69.9" cy="69.9" r=".7" fill="#1c2420" stroke="none"/><circle cx="65.2" cy="73.8" r=".7" fill="#1c2420" stroke="none"/><circle cx="59.9" cy="76.6" r=".7" fill="#1c2420" stroke="none"/><circle cx="54" cy="78.4" r=".7" fill="#1c2420" stroke="none"/><circle cx="48" cy="79" r=".7" fill="#1c2420" stroke="none"/><circle cx="42" cy="78.4" r=".7" fill="#1c2420" stroke="none"/><circle cx="36.1" cy="76.6" r=".7" fill="#1c2420" stroke="none"/><circle cx="30.8" cy="73.8" r=".7" fill="#1c2420" stroke="none"/><circle cx="26.1" cy="69.9" r=".7" fill="#1c2420" stroke="none"/><circle cx="22.2" cy="65.2" r=".7" fill="#1c2420" stroke="none"/><circle cx="19.4" cy="59.9" r=".7" fill="#1c2420" stroke="none"/><circle cx="17.6" cy="54" r=".7" fill="#1c2420" stroke="none"/><circle cx="17" cy="48" r=".7" fill="#1c2420" stroke="none"/><circle cx="17.6" cy="42" r=".7" fill="#1c2420" stroke="none"/><circle cx="19.4" cy="36.1" r=".7" fill="#1c2420" stroke="none"/><circle cx="22.2" cy="30.8" r=".7" fill="#1c2420" stroke="none"/><circle cx="26.1" cy="26.1" r=".7" fill="#1c2420" stroke="none"/><circle cx="30.8" cy="22.2" r=".7" fill="#1c2420" stroke="none"/><circle cx="36.1" cy="19.4" r=".7" fill="#1c2420" stroke="none"/><circle cx="42" cy="17.6" r=".7" fill="#1c2420" stroke="none"/><circle cx="48" cy="17" r=".7" fill="#1c2420" stroke="none"/><circle cx="54" cy="17.6" r=".7" fill="#1c2420" stroke="none"/><circle cx="59.9" cy="19.4" r=".7" fill="#1c2420" stroke="none"/><circle cx="65.2" cy="22.2" r=".7" fill="#1c2420" stroke="none"/><circle cx="69.9" cy="26.1" r=".7" fill="#1c2420" stroke="none"/><circle cx="73.8" cy="30.8" r=".7" fill="#1c2420" stroke="none"/><circle cx="76.6" cy="36.1" r=".7" fill="#1c2420" stroke="none"/><circle cx="78.4" cy="42" r=".7" fill="#1c2420" stroke="none"/>
    <g transform="translate(28.8 28.8) scale(.8)" stroke-width="1.75">
    <path d="M24 5C19 13 16.5 17 16.5 21.5C16.5 26.5 20 29.5 24 29.5C28 29.5 31.5 26.5 31.5 21.5C31.5 17 29 13 24 5Z"/>
    <path d="M21 21.5C21 23.8 22.2 25.4 24 26"/>
    <path d="M6 36.5C10 33.5 14 33.5 18 36.5C22 39.5 26 39.5 30 36.5C34 33.5 38 33.5 42 36.5M10 42.5C13 40.5 16 40.5 19 42.5C22 44.5 26 44.5 29 42.5C32 40.5 35 40.5 38 42.5"/></g>
  </svg>